<?xml version="1.0" encoding="utf-8"?>
<!-- Generator: Adobe Illustrator 24.0.1, SVG Export Plug-In . SVG Version: 6.00 Build 0)  -->
<svg version="1.1" id="图层_1" xmlns="http://www.w3.org/2000/svg" xmlns:xlink="http://www.w3.org/1999/xlink" x="0px" y="0px"
	 viewBox="0 0 27.5 27.5" style="enable-background:new 0 0 27.5 27.5;" xml:space="preserve">
<style type="text/css">
	.st0{fill:url(#SVGID_1_);}
	.st1{fill-rule:evenodd;clip-rule:evenodd;fill:#FFFFFF;}
	.st2{fill-rule:evenodd;clip-rule:evenodd;fill:#FFFFFF;fill-opacity:0.2;}
	.st3{fill:url(#SVGID_2_);}
</style>
<linearGradient id="SVGID_1_" gradientUnits="userSpaceOnUse" x1="27.1" y1="-748.128" x2="0.1" y2="-748.128" gradientTransform="matrix(1 0 0 -1 0 -734.378)">
	<stop  offset="0" style="stop-color:#FFFFFF"/>
	<stop  offset="0.3343" style="stop-color:#FFFFFF;stop-opacity:0"/>
</linearGradient>
<path class="st0" d="M13.8,27.3c-7.4,0-13.5-6.1-13.5-13.5S6.4,0.3,13.8,0.3s13.5,6.1,13.5,13.5S21.2,27.3,13.8,27.3z M13.8,1.3
	C6.9,1.3,1.3,6.9,1.3,13.8s5.6,12.5,12.5,12.5s12.5-5.6,12.5-12.5S20.6,1.3,13.8,1.3z"/>
<path class="st1" d="M13.8,7.8c3.3,0,6,2.7,6,6s-2.7,6-6,6s-6-2.7-6-6S10.4,7.8,13.8,7.8z"/>
<path class="st2" d="M13.8,1.3c6.9,0,12.5,5.6,12.5,12.5s-5.6,12.5-12.5,12.5S1.2,20.7,1.2,13.8S6.8,1.3,13.8,1.3z"/>
<linearGradient id="SVGID_2_" gradientUnits="userSpaceOnUse" x1="0.1253" y1="-747.4139" x2="27.0881" y2="-748.827" gradientTransform="matrix(1 0 0 -1 0 -734.378)">
	<stop  offset="0" style="stop-color:#FFFFFF"/>
	<stop  offset="0.4397" style="stop-color:#FFFFFF;stop-opacity:0.1"/>
	<stop  offset="0.6168" style="stop-color:#FFFFFF;stop-opacity:0.2"/>
</linearGradient>
<path class="st3" d="M13.8,27.3c-7.4,0-13.5-6.1-13.5-13.5S6.4,0.3,13.8,0.3s13.5,6.1,13.5,13.5S21.2,27.3,13.8,27.3z M13.8,1.3
	C6.9,1.3,1.3,6.9,1.3,13.8s5.6,12.5,12.5,12.5s12.5-5.6,12.5-12.5S20.6,1.3,13.8,1.3z"/>
<path class="st1" d="M13.8,7.8c3.3,0,6,2.7,6,6s-2.7,6-6,6s-6-2.7-6-6S10.4,7.8,13.8,7.8z"/>
</svg>
